<mxfile host="Electron" agent="Mozilla/5.0 (X11; Linux x86_64) AppleWebKit/537.36 (KHTML, like Gecko) draw.io/26.1.1 Chrome/132.0.6834.210 Electron/34.3.3 Safari/537.36" version="26.1.1">
  <diagram id="6a731a19-8d31-9384-78a2-239565b7b9f0" name="Page-1">
    <mxGraphModel dx="1179" dy="554" grid="1" gridSize="10" guides="1" tooltips="1" connect="1" arrows="1" fold="1" page="1" pageScale="1" pageWidth="1169" pageHeight="827" background="none" math="0" shadow="0">
      <root>
        <mxCell id="0" />
        <mxCell id="1" parent="0" />
        <mxCell id="XNldy6t5Upyu5XOo2lcR-6" value="" style="rounded=0;whiteSpace=wrap;html=1;fillColor=#e1d5e7;strokeColor=#9673a6;" vertex="1" parent="1">
          <mxGeometry x="77" y="297" width="340" height="170" as="geometry" />
        </mxCell>
        <mxCell id="0eoKsBQXeEa_ZbMd40bB-1783" value="" style="edgeStyle=orthogonalEdgeStyle;rounded=0;orthogonalLoop=1;jettySize=auto;html=1;" parent="1" source="0eoKsBQXeEa_ZbMd40bB-1780" target="0eoKsBQXeEa_ZbMd40bB-1782" edge="1">
          <mxGeometry relative="1" as="geometry" />
        </mxCell>
        <mxCell id="0eoKsBQXeEa_ZbMd40bB-1785" value="" style="edgeStyle=orthogonalEdgeStyle;rounded=0;orthogonalLoop=1;jettySize=auto;html=1;" parent="1" source="0eoKsBQXeEa_ZbMd40bB-1780" target="0eoKsBQXeEa_ZbMd40bB-1784" edge="1">
          <mxGeometry relative="1" as="geometry" />
        </mxCell>
        <mxCell id="0eoKsBQXeEa_ZbMd40bB-1789" value="" style="edgeStyle=orthogonalEdgeStyle;rounded=0;orthogonalLoop=1;jettySize=auto;html=1;" parent="1" source="0eoKsBQXeEa_ZbMd40bB-1780" target="0eoKsBQXeEa_ZbMd40bB-1788" edge="1">
          <mxGeometry relative="1" as="geometry" />
        </mxCell>
        <mxCell id="0eoKsBQXeEa_ZbMd40bB-1791" value="" style="edgeStyle=orthogonalEdgeStyle;rounded=0;orthogonalLoop=1;jettySize=auto;html=1;" parent="1" source="0eoKsBQXeEa_ZbMd40bB-1780" target="0eoKsBQXeEa_ZbMd40bB-1790" edge="1">
          <mxGeometry relative="1" as="geometry" />
        </mxCell>
        <mxCell id="XNldy6t5Upyu5XOo2lcR-8" style="edgeStyle=orthogonalEdgeStyle;rounded=0;orthogonalLoop=1;jettySize=auto;html=1;entryX=1;entryY=0.5;entryDx=0;entryDy=0;" edge="1" parent="1" source="0eoKsBQXeEa_ZbMd40bB-1780" target="0eoKsBQXeEa_ZbMd40bB-1864">
          <mxGeometry relative="1" as="geometry" />
        </mxCell>
        <mxCell id="0eoKsBQXeEa_ZbMd40bB-1780" value="Website" style="text;html=1;align=center;verticalAlign=middle;whiteSpace=wrap;rounded=1;shadow=1;glass=0;fillColor=#f5f5f5;fontColor=#333333;strokeColor=#666666;fontStyle=1" parent="1" vertex="1">
          <mxGeometry x="470" y="370" width="60" height="30" as="geometry" />
        </mxCell>
        <mxCell id="0eoKsBQXeEa_ZbMd40bB-1817" value="" style="edgeStyle=orthogonalEdgeStyle;rounded=0;orthogonalLoop=1;jettySize=auto;html=1;" parent="1" source="0eoKsBQXeEa_ZbMd40bB-1782" target="0eoKsBQXeEa_ZbMd40bB-1816" edge="1">
          <mxGeometry relative="1" as="geometry">
            <Array as="points">
              <mxPoint x="640" y="220" />
              <mxPoint x="545" y="220" />
            </Array>
          </mxGeometry>
        </mxCell>
        <mxCell id="0eoKsBQXeEa_ZbMd40bB-1820" value="" style="edgeStyle=orthogonalEdgeStyle;rounded=0;orthogonalLoop=1;jettySize=auto;html=1;" parent="1" source="0eoKsBQXeEa_ZbMd40bB-1782" target="0eoKsBQXeEa_ZbMd40bB-1819" edge="1">
          <mxGeometry relative="1" as="geometry">
            <Array as="points">
              <mxPoint x="640" y="220" />
              <mxPoint x="720" y="220" />
            </Array>
          </mxGeometry>
        </mxCell>
        <mxCell id="0eoKsBQXeEa_ZbMd40bB-1782" value="Single-Page Application" style="text;html=1;align=center;verticalAlign=middle;whiteSpace=wrap;rounded=1;fillColor=#d5e8d4;strokeColor=#82b366;shadow=1;glass=0;" parent="1" vertex="1">
          <mxGeometry x="585" y="270" width="110" height="40" as="geometry" />
        </mxCell>
        <mxCell id="0eoKsBQXeEa_ZbMd40bB-1797" value="" style="edgeStyle=orthogonalEdgeStyle;rounded=0;orthogonalLoop=1;jettySize=auto;html=1;" parent="1" source="0eoKsBQXeEa_ZbMd40bB-1784" target="0eoKsBQXeEa_ZbMd40bB-1796" edge="1">
          <mxGeometry relative="1" as="geometry" />
        </mxCell>
        <mxCell id="0eoKsBQXeEa_ZbMd40bB-1799" value="" style="edgeStyle=orthogonalEdgeStyle;rounded=0;orthogonalLoop=1;jettySize=auto;html=1;" parent="1" source="0eoKsBQXeEa_ZbMd40bB-1784" target="0eoKsBQXeEa_ZbMd40bB-1798" edge="1">
          <mxGeometry relative="1" as="geometry" />
        </mxCell>
        <mxCell id="0eoKsBQXeEa_ZbMd40bB-1784" value="Real-time multiplayer Pong Game&amp;nbsp;(1972)" style="whiteSpace=wrap;html=1;fillColor=#d5e8d4;strokeColor=#82b366;rounded=1;shadow=1;glass=0;" parent="1" vertex="1">
          <mxGeometry x="720" y="265" width="140" height="45" as="geometry" />
        </mxCell>
        <mxCell id="0eoKsBQXeEa_ZbMd40bB-1788" value="Definitions" style="ellipse;whiteSpace=wrap;html=1;fillColor=#dae8fc;strokeColor=#6c8ebf;gradientColor=none;rounded=1;shadow=1;glass=0;" parent="1" vertex="1">
          <mxGeometry x="600" y="345" width="80" height="80" as="geometry" />
        </mxCell>
        <mxCell id="0eoKsBQXeEa_ZbMd40bB-1793" value="" style="edgeStyle=orthogonalEdgeStyle;rounded=0;orthogonalLoop=1;jettySize=auto;html=1;" parent="1" source="0eoKsBQXeEa_ZbMd40bB-1790" target="0eoKsBQXeEa_ZbMd40bB-1792" edge="1">
          <mxGeometry relative="1" as="geometry" />
        </mxCell>
        <mxCell id="0eoKsBQXeEa_ZbMd40bB-1795" value="" style="edgeStyle=orthogonalEdgeStyle;rounded=0;orthogonalLoop=1;jettySize=auto;html=1;" parent="1" source="0eoKsBQXeEa_ZbMd40bB-1790" target="0eoKsBQXeEa_ZbMd40bB-1794" edge="1">
          <mxGeometry relative="1" as="geometry" />
        </mxCell>
        <mxCell id="0eoKsBQXeEa_ZbMd40bB-1790" value="Tools" style="ellipse;whiteSpace=wrap;html=1;fillColor=#dae8fc;strokeColor=#6c8ebf;gradientColor=none;rounded=1;shadow=1;glass=0;" parent="1" vertex="1">
          <mxGeometry x="460" y="455" width="80" height="80" as="geometry" />
        </mxCell>
        <mxCell id="0eoKsBQXeEa_ZbMd40bB-1792" value="Typescript" style="whiteSpace=wrap;html=1;fillColor=#fff2cc;strokeColor=#d6b656;rounded=1;shadow=1;glass=0;" parent="1" vertex="1">
          <mxGeometry x="585" y="550" width="80" height="35" as="geometry" />
        </mxCell>
        <mxCell id="0eoKsBQXeEa_ZbMd40bB-1794" value="Docker Compose" style="whiteSpace=wrap;html=1;fillColor=#fff2cc;strokeColor=#d6b656;rounded=1;shadow=1;glass=0;" parent="1" vertex="1">
          <mxGeometry x="630" y="450" width="120" height="35" as="geometry" />
        </mxCell>
        <mxCell id="0eoKsBQXeEa_ZbMd40bB-1796" value="Two players on the same keyboard" style="whiteSpace=wrap;html=1;fillColor=#e1d5e7;strokeColor=#9673a6;rounded=1;shadow=1;glass=0;" parent="1" vertex="1">
          <mxGeometry x="900" y="268.75" width="120" height="37.5" as="geometry" />
        </mxCell>
        <mxCell id="0eoKsBQXeEa_ZbMd40bB-1803" value="" style="edgeStyle=orthogonalEdgeStyle;rounded=0;orthogonalLoop=1;jettySize=auto;html=1;" parent="1" source="0eoKsBQXeEa_ZbMd40bB-1798" target="0eoKsBQXeEa_ZbMd40bB-1802" edge="1">
          <mxGeometry relative="1" as="geometry" />
        </mxCell>
        <mxCell id="0eoKsBQXeEa_ZbMd40bB-1812" value="" style="edgeStyle=orthogonalEdgeStyle;rounded=0;orthogonalLoop=1;jettySize=auto;html=1;" parent="1" source="0eoKsBQXeEa_ZbMd40bB-1798" target="0eoKsBQXeEa_ZbMd40bB-1811" edge="1">
          <mxGeometry relative="1" as="geometry" />
        </mxCell>
        <mxCell id="0eoKsBQXeEa_ZbMd40bB-1798" value="Tournament system" style="whiteSpace=wrap;html=1;fillColor=#fff2cc;strokeColor=#d6b656;rounded=1;shadow=1;glass=0;" parent="1" vertex="1">
          <mxGeometry x="860" y="180" width="120" height="37.5" as="geometry" />
        </mxCell>
        <mxCell id="0eoKsBQXeEa_ZbMd40bB-1800" value="Show Rivals and Order" style="whiteSpace=wrap;html=1;fillColor=#e1d5e7;strokeColor=#9673a6;rounded=1;shadow=1;glass=0;" parent="1" vertex="1">
          <mxGeometry x="1070" y="101.4" width="90" height="42.5" as="geometry" />
        </mxCell>
        <mxCell id="0eoKsBQXeEa_ZbMd40bB-1806" value="" style="edgeStyle=orthogonalEdgeStyle;rounded=0;orthogonalLoop=1;jettySize=auto;html=1;" parent="1" source="0eoKsBQXeEa_ZbMd40bB-1802" target="0eoKsBQXeEa_ZbMd40bB-1805" edge="1">
          <mxGeometry relative="1" as="geometry" />
        </mxCell>
        <mxCell id="0eoKsBQXeEa_ZbMd40bB-1802" value="Registration System&lt;div&gt;at the start of tournament&lt;/div&gt;" style="whiteSpace=wrap;html=1;fillColor=#fff2cc;strokeColor=#d6b656;rounded=1;shadow=1;glass=0;" parent="1" vertex="1">
          <mxGeometry x="1060" y="165.31" width="170" height="66.87" as="geometry" />
        </mxCell>
        <mxCell id="XNldy6t5Upyu5XOo2lcR-5" value="" style="edgeStyle=orthogonalEdgeStyle;rounded=0;orthogonalLoop=1;jettySize=auto;html=1;" edge="1" parent="1" source="0eoKsBQXeEa_ZbMd40bB-1805" target="XNldy6t5Upyu5XOo2lcR-4">
          <mxGeometry relative="1" as="geometry" />
        </mxCell>
        <mxCell id="0eoKsBQXeEa_ZbMd40bB-1805" value="Alias or Account" style="rhombus;whiteSpace=wrap;html=1;fillColor=#ffe6cc;strokeColor=#d79b00;rounded=1;shadow=1;glass=0;" parent="1" vertex="1">
          <mxGeometry x="1080" y="280.005" width="80" height="80" as="geometry" />
        </mxCell>
        <mxCell id="0eoKsBQXeEa_ZbMd40bB-1815" style="edgeStyle=orthogonalEdgeStyle;rounded=0;orthogonalLoop=1;jettySize=auto;html=1;" parent="1" source="0eoKsBQXeEa_ZbMd40bB-1811" target="0eoKsBQXeEa_ZbMd40bB-1800" edge="1">
          <mxGeometry relative="1" as="geometry" />
        </mxCell>
        <mxCell id="0eoKsBQXeEa_ZbMd40bB-1811" value="Matchmaking system" style="whiteSpace=wrap;html=1;fillColor=#fff2cc;strokeColor=#d6b656;rounded=1;shadow=1;glass=0;" parent="1" vertex="1">
          <mxGeometry x="940" y="105.31" width="90" height="34.69" as="geometry" />
        </mxCell>
        <mxCell id="0eoKsBQXeEa_ZbMd40bB-1828" value="" style="edgeStyle=orthogonalEdgeStyle;rounded=0;orthogonalLoop=1;jettySize=auto;html=1;" parent="1" source="0eoKsBQXeEa_ZbMd40bB-1816" target="0eoKsBQXeEa_ZbMd40bB-1827" edge="1">
          <mxGeometry relative="1" as="geometry" />
        </mxCell>
        <mxCell id="0eoKsBQXeEa_ZbMd40bB-1843" style="edgeStyle=orthogonalEdgeStyle;rounded=0;orthogonalLoop=1;jettySize=auto;html=1;entryX=1;entryY=0.5;entryDx=0;entryDy=0;" parent="1" source="0eoKsBQXeEa_ZbMd40bB-1816" target="0eoKsBQXeEa_ZbMd40bB-1832" edge="1">
          <mxGeometry relative="1" as="geometry">
            <Array as="points">
              <mxPoint x="330" y="160" />
              <mxPoint x="330" y="119" />
            </Array>
          </mxGeometry>
        </mxCell>
        <mxCell id="0eoKsBQXeEa_ZbMd40bB-1844" style="edgeStyle=orthogonalEdgeStyle;rounded=0;orthogonalLoop=1;jettySize=auto;html=1;exitX=0.25;exitY=0;exitDx=0;exitDy=0;entryX=0.75;entryY=1;entryDx=0;entryDy=0;" parent="1" source="0eoKsBQXeEa_ZbMd40bB-1816" target="0eoKsBQXeEa_ZbMd40bB-1834" edge="1">
          <mxGeometry relative="1" as="geometry">
            <Array as="points">
              <mxPoint x="525" y="130" />
              <mxPoint x="375" y="130" />
            </Array>
          </mxGeometry>
        </mxCell>
        <mxCell id="0eoKsBQXeEa_ZbMd40bB-1851" style="edgeStyle=orthogonalEdgeStyle;rounded=0;orthogonalLoop=1;jettySize=auto;html=1;exitX=0.25;exitY=1;exitDx=0;exitDy=0;" parent="1" source="0eoKsBQXeEa_ZbMd40bB-1816" target="0eoKsBQXeEa_ZbMd40bB-1850" edge="1">
          <mxGeometry relative="1" as="geometry" />
        </mxCell>
        <mxCell id="0eoKsBQXeEa_ZbMd40bB-1853" style="edgeStyle=orthogonalEdgeStyle;rounded=0;orthogonalLoop=1;jettySize=auto;html=1;exitX=1;exitY=0.5;exitDx=0;exitDy=0;" parent="1" source="0eoKsBQXeEa_ZbMd40bB-1816" target="0eoKsBQXeEa_ZbMd40bB-1822" edge="1">
          <mxGeometry relative="1" as="geometry" />
        </mxCell>
        <mxCell id="0eoKsBQXeEa_ZbMd40bB-1874" style="edgeStyle=orthogonalEdgeStyle;rounded=0;orthogonalLoop=1;jettySize=auto;html=1;entryX=1;entryY=0.5;entryDx=0;entryDy=0;" parent="1" source="0eoKsBQXeEa_ZbMd40bB-1816" target="0eoKsBQXeEa_ZbMd40bB-1871" edge="1">
          <mxGeometry relative="1" as="geometry" />
        </mxCell>
        <mxCell id="0eoKsBQXeEa_ZbMd40bB-1877" style="edgeStyle=orthogonalEdgeStyle;rounded=0;orthogonalLoop=1;jettySize=auto;html=1;entryX=0.5;entryY=0;entryDx=0;entryDy=0;" parent="1" source="0eoKsBQXeEa_ZbMd40bB-1816" target="0eoKsBQXeEa_ZbMd40bB-1876" edge="1">
          <mxGeometry relative="1" as="geometry">
            <Array as="points">
              <mxPoint x="430" y="170" />
            </Array>
          </mxGeometry>
        </mxCell>
        <mxCell id="0eoKsBQXeEa_ZbMd40bB-1816" value="Back-End" style="whiteSpace=wrap;html=1;fillColor=#fad9d5;strokeColor=#ae4132;rounded=1;shadow=1;glass=0;" parent="1" vertex="1">
          <mxGeometry x="505" y="150" width="80" height="30" as="geometry" />
        </mxCell>
        <mxCell id="0eoKsBQXeEa_ZbMd40bB-1821" style="edgeStyle=orthogonalEdgeStyle;rounded=0;orthogonalLoop=1;jettySize=auto;html=1;entryX=0.25;entryY=0;entryDx=0;entryDy=0;" parent="1" source="0eoKsBQXeEa_ZbMd40bB-1819" target="0eoKsBQXeEa_ZbMd40bB-1784" edge="1">
          <mxGeometry relative="1" as="geometry">
            <Array as="points">
              <mxPoint x="790" y="165" />
              <mxPoint x="790" y="223" />
              <mxPoint x="755" y="223" />
            </Array>
          </mxGeometry>
        </mxCell>
        <mxCell id="0eoKsBQXeEa_ZbMd40bB-1859" style="edgeStyle=orthogonalEdgeStyle;rounded=0;orthogonalLoop=1;jettySize=auto;html=1;exitX=0.75;exitY=0;exitDx=0;exitDy=0;entryX=0;entryY=0.5;entryDx=0;entryDy=0;" parent="1" source="0eoKsBQXeEa_ZbMd40bB-1819" target="0eoKsBQXeEa_ZbMd40bB-1858" edge="1">
          <mxGeometry relative="1" as="geometry" />
        </mxCell>
        <mxCell id="0eoKsBQXeEa_ZbMd40bB-1819" value="Front-End" style="whiteSpace=wrap;html=1;fillColor=#fad9d5;strokeColor=#ae4132;rounded=1;shadow=1;glass=0;" parent="1" vertex="1">
          <mxGeometry x="680" y="150" width="80" height="30" as="geometry" />
        </mxCell>
        <mxCell id="0eoKsBQXeEa_ZbMd40bB-1825" value="" style="edgeStyle=orthogonalEdgeStyle;rounded=0;orthogonalLoop=1;jettySize=auto;html=1;" parent="1" source="0eoKsBQXeEa_ZbMd40bB-1822" target="0eoKsBQXeEa_ZbMd40bB-1824" edge="1">
          <mxGeometry relative="1" as="geometry" />
        </mxCell>
        <mxCell id="0eoKsBQXeEa_ZbMd40bB-1857" style="edgeStyle=orthogonalEdgeStyle;rounded=0;orthogonalLoop=1;jettySize=auto;html=1;entryX=0;entryY=0.5;entryDx=0;entryDy=0;" parent="1" source="0eoKsBQXeEa_ZbMd40bB-1822" target="0eoKsBQXeEa_ZbMd40bB-1856" edge="1">
          <mxGeometry relative="1" as="geometry" />
        </mxCell>
        <mxCell id="0eoKsBQXeEa_ZbMd40bB-1822" value="Data&amp;nbsp;&lt;span style=&quot;background-color: transparent; color: light-dark(rgb(0, 0, 0), rgb(255, 255, 255));&quot;&gt;Base (0.5)&lt;/span&gt;" style="whiteSpace=wrap;html=1;fillColor=#f0a30a;strokeColor=#BD7000;rounded=1;shadow=1;glass=0;fontColor=#000000;" parent="1" vertex="1">
          <mxGeometry x="580" y="105.31" width="100" height="25" as="geometry" />
        </mxCell>
        <mxCell id="0eoKsBQXeEa_ZbMd40bB-1824" value="&amp;nbsp;Store Passwords Strongly Hashed" style="whiteSpace=wrap;html=1;fillColor=#e1d5e7;strokeColor=#9673a6;rounded=1;shadow=1;glass=0;" parent="1" vertex="1">
          <mxGeometry x="573.75" y="35.31" width="112.5" height="40" as="geometry" />
        </mxCell>
        <mxCell id="0eoKsBQXeEa_ZbMd40bB-1827" value="&lt;div&gt;Protection against&lt;/div&gt;SQL injections&lt;div&gt;XSS attacks.&lt;/div&gt;" style="whiteSpace=wrap;html=1;fillColor=#e1d5e7;strokeColor=#9673a6;rounded=1;shadow=1;glass=0;" parent="1" vertex="1">
          <mxGeometry x="420" y="30" width="135" height="60" as="geometry" />
        </mxCell>
        <mxCell id="0eoKsBQXeEa_ZbMd40bB-1832" value="HTTPS / SSL / WSS&lt;div&gt;Encrypted Connections&lt;/div&gt;" style="rounded=1;whiteSpace=wrap;html=1;fillColor=#e1d5e7;strokeColor=#9673a6;shadow=1;" parent="1" vertex="1">
          <mxGeometry x="150" y="93.9" width="150" height="50" as="geometry" />
        </mxCell>
        <mxCell id="0eoKsBQXeEa_ZbMd40bB-1834" value="Input validation" style="rounded=1;whiteSpace=wrap;html=1;fillColor=#e1d5e7;strokeColor=#9673a6;shadow=1;" parent="1" vertex="1">
          <mxGeometry x="300" y="40" width="100" height="35.31" as="geometry" />
        </mxCell>
        <mxCell id="0eoKsBQXeEa_ZbMd40bB-1847" value="Prometheus and Grafana (0.5)" style="whiteSpace=wrap;html=1;fillColor=#f0a30a;strokeColor=#BD7000;rounded=1;shadow=1;glass=0;fontColor=#000000;" parent="1" vertex="1">
          <mxGeometry x="178" y="354" width="110" height="30" as="geometry" />
        </mxCell>
        <mxCell id="0eoKsBQXeEa_ZbMd40bB-1850" value="Fastify with Node.js (1)" style="rounded=1;whiteSpace=wrap;html=1;fillColor=#f0a30a;fontColor=#000000;strokeColor=#BD7000;shadow=1;" parent="1" vertex="1">
          <mxGeometry x="440" y="232.18" width="150" height="30" as="geometry" />
        </mxCell>
        <mxCell id="0eoKsBQXeEa_ZbMd40bB-1856" value="SQLite" style="rounded=1;whiteSpace=wrap;html=1;fillColor=#fff2cc;strokeColor=#d6b656;shadow=1;" parent="1" vertex="1">
          <mxGeometry x="715" y="90" width="70" height="24.69" as="geometry" />
        </mxCell>
        <mxCell id="0eoKsBQXeEa_ZbMd40bB-1858" value="Tailwind CSS Framework (0.5)" style="rounded=1;whiteSpace=wrap;html=1;fillColor=#f0a30a;fontColor=#000000;strokeColor=#BD7000;" parent="1" vertex="1">
          <mxGeometry x="800" y="115" width="110" height="30" as="geometry" />
        </mxCell>
        <mxCell id="0eoKsBQXeEa_ZbMd40bB-1861" value="WAF and Vault (1)" style="rounded=1;whiteSpace=wrap;html=1;fillColor=#f0a30a;fontColor=#000000;strokeColor=#BD7000;" parent="1" vertex="1">
          <mxGeometry x="167" y="309" width="120" height="28" as="geometry" />
        </mxCell>
        <mxCell id="0eoKsBQXeEa_ZbMd40bB-1869" value="" style="edgeStyle=orthogonalEdgeStyle;rounded=0;orthogonalLoop=1;jettySize=auto;html=1;" parent="1" source="0eoKsBQXeEa_ZbMd40bB-1864" target="0eoKsBQXeEa_ZbMd40bB-1867" edge="1">
          <mxGeometry relative="1" as="geometry" />
        </mxCell>
        <mxCell id="XNldy6t5Upyu5XOo2lcR-2" style="edgeStyle=orthogonalEdgeStyle;rounded=0;orthogonalLoop=1;jettySize=auto;html=1;exitX=0.25;exitY=0;exitDx=0;exitDy=0;entryX=1;entryY=0.5;entryDx=0;entryDy=0;" edge="1" parent="1" source="0eoKsBQXeEa_ZbMd40bB-1864" target="0eoKsBQXeEa_ZbMd40bB-1847">
          <mxGeometry relative="1" as="geometry" />
        </mxCell>
        <mxCell id="XNldy6t5Upyu5XOo2lcR-3" style="edgeStyle=orthogonalEdgeStyle;rounded=0;orthogonalLoop=1;jettySize=auto;html=1;exitX=0.75;exitY=0;exitDx=0;exitDy=0;entryX=1;entryY=0.5;entryDx=0;entryDy=0;" edge="1" parent="1" source="0eoKsBQXeEa_ZbMd40bB-1864" target="0eoKsBQXeEa_ZbMd40bB-1861">
          <mxGeometry relative="1" as="geometry" />
        </mxCell>
        <mxCell id="0eoKsBQXeEa_ZbMd40bB-1864" value="Infra" style="rounded=1;whiteSpace=wrap;html=1;shadow=1;fillColor=#dae8fc;strokeColor=#6c8ebf;" parent="1" vertex="1">
          <mxGeometry x="317" y="397" width="70" height="30" as="geometry" />
        </mxCell>
        <mxCell id="0eoKsBQXeEa_ZbMd40bB-1867" value="Log Management ELK (1)" style="rounded=1;whiteSpace=wrap;html=1;fillColor=#f0a30a;fontColor=#000000;strokeColor=#BD7000;" parent="1" vertex="1">
          <mxGeometry x="117" y="407" width="130" height="36" as="geometry" />
        </mxCell>
        <mxCell id="0eoKsBQXeEa_ZbMd40bB-1871" value="Backend as Microservices (1)" style="rounded=1;whiteSpace=wrap;html=1;shadow=1;fillColor=#f0a30a;fontColor=#000000;strokeColor=#BD7000;" parent="1" vertex="1">
          <mxGeometry x="200" y="170" width="120" height="40" as="geometry" />
        </mxCell>
        <mxCell id="0eoKsBQXeEa_ZbMd40bB-1876" value="Multiple language (0.5)" style="rounded=1;whiteSpace=wrap;html=1;fillColor=#fa6800;fontColor=#000000;strokeColor=#C73500;" parent="1" vertex="1">
          <mxGeometry x="360" y="195.5" width="140" height="30" as="geometry" />
        </mxCell>
        <mxCell id="0eoKsBQXeEa_ZbMd40bB-1878" value="Server-Side Pong API (1)" style="rounded=1;whiteSpace=wrap;html=1;fillColor=#f0a30a;fontColor=#000000;strokeColor=#BD7000;" parent="1" vertex="1">
          <mxGeometry x="150" y="232.18" width="150" height="30" as="geometry" />
        </mxCell>
        <mxCell id="0eoKsBQXeEa_ZbMd40bB-1880" style="edgeStyle=orthogonalEdgeStyle;rounded=0;orthogonalLoop=1;jettySize=auto;html=1;entryX=1;entryY=0.5;entryDx=0;entryDy=0;jumpStyle=arc;" parent="1" source="0eoKsBQXeEa_ZbMd40bB-1816" target="0eoKsBQXeEa_ZbMd40bB-1878" edge="1">
          <mxGeometry relative="1" as="geometry">
            <Array as="points">
              <mxPoint x="350" y="165" />
              <mxPoint x="350" y="247" />
            </Array>
          </mxGeometry>
        </mxCell>
        <mxCell id="XNldy6t5Upyu5XOo2lcR-10" style="edgeStyle=orthogonalEdgeStyle;rounded=0;orthogonalLoop=1;jettySize=auto;html=1;entryX=0.75;entryY=0;entryDx=0;entryDy=0;exitX=1;exitY=0.5;exitDx=0;exitDy=0;" edge="1" parent="1" source="XNldy6t5Upyu5XOo2lcR-4" target="0eoKsBQXeEa_ZbMd40bB-1822">
          <mxGeometry relative="1" as="geometry">
            <Array as="points">
              <mxPoint x="1300" y="319" />
              <mxPoint x="1300" y="85" />
              <mxPoint x="655" y="85" />
            </Array>
          </mxGeometry>
        </mxCell>
        <mxCell id="XNldy6t5Upyu5XOo2lcR-4" value="Alias" style="whiteSpace=wrap;html=1;fillColor=#e1d5e7;strokeColor=#9673a6;rounded=1;shadow=1;glass=0;" vertex="1" parent="1">
          <mxGeometry x="1190" y="309" width="80" height="20" as="geometry" />
        </mxCell>
      </root>
    </mxGraphModel>
  </diagram>
</mxfile>
